{"title":"The Hard Corps (2006) 720p DVDRip HEVC x265 [Dual-Audio][English","uid":12011324,"size":1044428508,"categoryP":"video","categoryS":"movies","magnet":"?xt=urn:btih:4619ea717ab0ea809eb1904e04bcb6ac17d73e23&amp;dn=The+Hard+Corps+%282006%29+720p+DVDRip+HEVC+x265+%5BDual-Audio%5D%5BEnglish&amp;tr=udp%3A%2F%2Ftracker.openbittorrent.com%3A80&amp;tr=udp%3A%2F%2Fopen.demonii.com%3A1337&amp;tr=udp%3A%2F%2Ftracker.coppersurfer.tk%3A6969&amp;tr=udp%3A%2F%2Fexodus.desync.com%3A6969","seeders":2,"leechers":5,"uploader":"praneet_gupta777","files":3,"time":1434137032,"description":"[center]\n[b][size=7]The Hard Corps (2006) 720p DVDRip HEVC x265 [Dual-Audio][English 5.1+Hindi 2.0] Esubs [PKG][/size][/b]\n\n\n\n\n\n[img]http://extraimago.com/images/2015/06/12/The-Hard-Corps-2006-Wide-Screen-Front-Cover-1815951c5c.jpg[/img]\n\n\n[img]http://extraimago.com/images/2015/06/12/Untitled.png[/img]\n\n\n\n[img]http://img9.uploadhouse.com/fileuploads/15981/15981250a2a3770f9f004bcdf00afac92833ebdb.png[/img]\n\n\n[quote]\n\n\nGeneral\nUnique ID                   : 234742573866528672191545037874671068227 (0xB099C6750735887FA4BF159394832443)\nComplete name               : G:The Hard Corps (2006) 720p DVDRip HEVC x265 [Dual-Audio][English 5.1+Hindi 2.0] Esubs [PKG]The Hard Corps (2006) 720p DVDRip HEVC x265 [Dual-Audio][English 5.1+Hindi 2.0] Esubs [PKG].mkv\nFormat                      : Matroska\nFormat version              : Version 2\nFile size                   : 991 MiB\nDuration                    : 1h 45mn\nOverall bit rate            : 1 309 Kbps\nEncoded date                : UTC 2015-06-12 08:58:43\nWriting application         : mkvmerge v7.7.0 ('Six Voices') 32bit built on Feb 28 2015 23:23:00\nDURATION                    : 01:38:26.880000000\nNUMBER_OF_FRAMES            : 1380\nNUMBER_OF_BYTES             : 49949\n\nVideo\nID                          : 1\nFormat                      : HEVC\nFormat/Info                 : High Efficiency Video Coding\nCodec ID                    : V_MPEGH/ISO/HEVC\nDuration                    : 1h 45mn\nBit rate                    : 1 027 Kbps\nWidth                       : 1 280 pixels\nHeight                      : 544 pixels\nDisplay aspect ratio        : 2.35:1\nFrame rate mode             : Constant\nFrame rate                  : 25.000 fps\nBits/(Pixel*Frame)          : 0.059\nStream size                 : 778 MiB (78%)\nTitle                       : The Hard Corps (2006) [PKG]\nDefault                     : Yes\nForced                      : No\n\nAudio #1\nID                          : 2\nFormat                      : AC-3\nFormat/Info                 : Audio Coding 3\nMode extension              : CM (complete main)\nFormat settings, Endianness : Big\nCodec ID                    : A_AC3\nDuration                    : 1h 45mn\nBit rate mode               : Constant\nBit rate                    : 128 Kbps\nChannel(s)                  : 2 channels\nChannel positions           : Front: L R\nSampling rate               : 48.0 KHz\nBit depth                   : 16 bits\nCompression mode            : Lossy\nStream size                 : 96.9 MiB (10%)\nLanguage                    : Hindi\nDefault                     : Yes\nForced                      : No\n\nAudio #2\nID                          : 3\nFormat                      : AC-3\nFormat/Info                 : Audio Coding 3\nMode extension              : CM (complete main)\nFormat settings, Endianness : Big\nCodec ID                    : A_AC3\nDuration                    : 1h 45mn\nBit rate mode               : Constant\nBit rate                    : 128 Kbps\nChannel(s)                  : 6 channels\nChannel positions           : Front: L C R, Side: L R, LFE\nSampling rate               : 48.0 KHz\nBit depth                   : 16 bits\nCompression mode            : Lossy\nStream size                 : 96.9 MiB (10%)\nLanguage                    : English\nDefault                     : No\nForced                      : No\n\nText\nID                          : 4\nFormat                      : UTF-8\nCodec ID                    : S_TEXT/UTF8\nCodec ID/Info               : UTF-8 Plain Text\nLanguage                    : English\nDefault                     : Yes\nForced                      : No\n\n\n[color=navy][size=6][b]SAMPLE WITHIN TORRENT[/b][/size][/color]\n\n\n\n\n\n[img]http://icons.iconarchive.com/icons/tribalmarkings/colorflow/256/screenshots-icon.png[/img]\n\n\n\n[img]http://extraimago.com/images/2015/06/12/vlcsnap-2015-06-12-15h17m54s50.png[/img]\n\n[img]http://extraimago.com/images/2015/06/12/vlcsnap-2015-06-12-15h18m10s208.png[/img]\n\n[img]http://extraimago.com/images/2015/06/12/vlcsnap-2015-06-12-15h35m20s22.png[/img]\n\n[img]http://extraimago.com/images/2015/06/12/vlcsnap-2015-06-12-15h35m29s92.png[/img]\n\n[img]http://extraimago.com/images/2015/06/12/vlcsnap-2015-06-12-15h26m00s55.png[/img]\n\n[img]http://extraimago.com/images/2015/06/12/TheHardCorps2006720pDVDRipHEVCx265Dual-AudioEnglish5.1Hindi2.0EsubsPKG.mkv_thumbs_2015.06.12_15.01.59.jpg[/img]\n\n\n\n\n[b]Use a reputed media player that can play H.265 (HEVC : High Efficiency Video Coding) Video support.\nMedia Player Classic - Home Cinema and MPC-BE are recommended!.. VLC is OKay, but MPC variants are preferred.\nVLC and players like latest GOM, KMP/PotP with LAV can play HEVC.\n\nAnd also use latest K-Lite Codec Pack.\n\nIn Mobile, Android, Tabs, use a media player like VLC Player, MX Player... that can play H.265 :]\nFor more info, read the How_to_Play_ file inside the torrent.\n\n\nBe aware that all HEVC rips will not play on any stand-alone device. You can only watch this on a computer or on devices which have HEVC support.\nBe sure that you have the latest versions of VLC or Media Player Classic or SMPlayer. Earlier versions may not work[/b]\n\n\n\n[/center]","torrent":{"xt":"urn:btih:4619ea717ab0ea809eb1904e04bcb6ac17d73e23","amp;dn":"The+Hard+Corps+%282006%29+720p+DVDRip+HEVC+x265+%5BDual-Audio%5D%5BEnglish","amp;tr":["udp%3A%2F%2Ftracker.openbittorrent.com%3A80","udp%3A%2F%2Fopen.demonii.com%3A1337","udp%3A%2F%2Ftracker.coppersurfer.tk%3A6969","udp%3A%2F%2Fexodus.desync.com%3A6969"],"infoHash":"4619ea717ab0ea809eb1904e04bcb6ac17d73e23","infoHashBuffer":{"type":"Buffer","data":[70,25,234,113,122,176,234,128,158,177,144,78,4,188,182,172,23,215,62,35]},"announce":[],"urlList":[]}}